# Blender v2.90.1 OBJ File: 'Flag.blend'
# www.blender.org
mtllib Flag.mtl
o Cylinder_Cylinder.001
v -0.006505 -0.013296 -1.004101
v -0.006505 60.890926 -1.004101
v 0.944552 -0.013296 -0.313118
v 0.944552 60.890926 -0.313118
v 0.581281 -0.013296 0.804916
v 0.581281 60.890926 0.804916
v -0.594290 -0.013296 0.804916
v -0.594290 60.890926 0.804916
v -0.957561 -0.013296 -0.313118
v -0.957561 60.890926 -0.313118
v 0.944484 80.959000 -0.313118
v -0.006572 80.959000 -1.004101
v 0.581213 80.959000 0.804916
v -0.594357 80.959000 0.804916
v -0.957629 80.959000 -0.313118
v -4.238280 62.397446 12.623632
v -3.062709 62.397446 12.623632
v -4.238348 79.452477 12.623632
v -3.062777 79.452477 12.623632
v -0.475202 65.297989 28.406746
v 0.700369 65.297989 28.406746
v -0.475269 76.551941 28.406746
v 0.700301 76.551941 28.406746
v -0.475202 68.546722 39.465191
v 0.700369 68.546722 39.465191
v -0.475269 73.303207 39.465191
v 0.700301 73.303207 39.465191
vt 0.722921 0.978537
vt 0.722924 0.258662
vt 0.736819 0.258662
vt 0.736818 0.978537
vt 0.750714 0.258662
vt 0.750714 0.978537
vt 0.681233 0.978537
vt 0.681239 0.258662
vt 0.695134 0.258662
vt 0.695129 0.978537
vt 0.722924 0.021461
vt 0.736819 0.021461
vt 0.709029 0.258662
vt 0.709025 0.978537
vt 0.732524 0.991753
vt 0.755008 0.991753
vt 0.743766 0.999921
vt 0.732525 0.008246
vt 0.743767 0.000079
vt 0.755008 0.008246
vt 0.750714 0.021461
vt 0.222654 0.043448
vt 0.471266 0.003332
vt 0.460970 0.154262
vt 0.282177 0.176194
vt 0.695134 0.021461
vt 0.709029 0.021461
vt 0.471578 0.344810
vt 0.335714 0.364393
vt 0.485443 0.000079
vt 0.474473 0.153853
vt 0.209693 0.044993
vt 0.269378 0.180342
vt 0.000079 0.165147
vt 0.089864 0.285310
vt 0.323729 0.370148
vt 0.386620 0.488903
vt 0.374058 0.493993
vt 0.213076 0.438723
vt 0.485443 0.347454
vt 0.407215 0.539729
vt 0.394654 0.544819
vt 0.326601 0.529863
vt 0.458344 0.485960
vt 0.444217 0.483196
vn 0.5878 0.0000 -0.8090
vn 0.9511 0.0000 0.3090
vn -0.0000 0.0000 1.0000
vn -0.9511 0.0000 0.3090
vn -0.5878 0.0000 -0.8090
vn 0.0000 -1.0000 0.0000
vn 0.0000 1.0000 0.0000
vn -0.9556 -0.0000 -0.2946
vn -0.9727 -0.0000 0.2319
vn 0.0000 -0.9920 0.1264
vn 0.0000 0.9920 0.1264
vn 0.9556 0.0000 0.2946
vn 0.0000 0.9595 0.2819
vn 0.0000 0.9835 0.1807
vn 0.9727 0.0000 -0.2319
vn 0.0000 -0.9835 0.1807
vn 1.0000 0.0000 0.0000
vn 0.0000 -0.9595 0.2819
vn -1.0000 -0.0000 0.0000
usemtl None
s off
f 1/1/1 2/2/1 4/3/1 3/4/1
f 3/4/2 4/3/2 6/5/2 5/6/2
f 5/7/3 6/8/3 8/9/3 7/10/3
f 4/3/1 2/2/1 12/11/1 11/12/1
f 7/10/4 8/9/4 10/13/4 9/14/4
f 9/14/5 10/13/5 2/2/5 1/1/5
f 1/15/6 3/4/6 5/6/6 7/16/6 9/17/6
f 11/12/7 12/18/7 15/19/7 14/20/7 13/21/7
f 14/22/8 8/23/8 16/24/8 18/25/8
f 10/13/4 8/9/4 14/26/4 15/27/4
f 6/5/2 4/3/2 11/12/2 13/21/2
f 2/2/5 10/13/5 15/27/5 12/11/5
f 18/25/9 16/24/9 20/28/9 22/29/9
f 8/23/10 6/30/10 17/31/10 16/24/10
f 13/32/11 14/22/11 18/25/11 19/33/11
f 6/34/12 13/32/12 19/33/12 17/35/12
f 23/36/13 22/29/13 26/37/13 27/38/13
f 19/33/14 18/25/14 22/29/14 23/36/14
f 17/35/15 19/33/15 23/36/15 21/39/15
f 16/24/16 17/31/16 21/40/16 20/28/16
f 24/41/3 25/42/3 27/38/3 26/37/3
f 21/39/17 23/36/17 27/38/17 25/43/17
f 20/28/18 21/40/18 25/44/18 24/45/18
f 22/29/19 20/28/19 24/45/19 26/37/19
